PathFileType	4	(X/Y/Z)	./resultDataOpenSim/trcMotMarkerGrf/sub06/qtm-13-04.trc
DataRate	CameraRate	NumFrames	NumMarkers	Units	OrigDataRate	OrigDataStartFrame	OrigNumFrames
250.000000	250.000000	14	24	m	250.000000	200	533
Frame#	Time	L.Toe.Tip			R.Toe.Tip			L.Ankle.Lat			R.Ankle.Lat			L.Ankle.Med			R.Ankle.Med			L.Heel			R.Heel			L.Knee.Lat			R.Knee.Lat			L.Knee.Med			R.Knee.Med			L.Thigh.Upper			R.Thigh.Upper			L.ASIS			R.ASIS			V.Sacral			L.Acromium			R.Acromium			C7			L.Elbow			R.Elbow			L.Wrist.Lat			R.Wrist.Lat
		X1	Y1	Z1	X2	Y2	Z2	X3	Y3	Z3	X4	Y4	Z4	X5	Y5	Z5	X6	Y6	Z6	X7	Y7	Z7	X8	Y8	Z8	X9	Y9	Z9	X10	Y10	Z10	X11	Y11	Z11	X12	Y12	Z12	X13	Y13	Z13	X14	Y14	Z14	X15	Y15	Z15	X16	Y16	Z16	X17	Y17	Z17	X18	Y18	Z18	X19	Y19	Z19	X20	Y20	Z20	X21	Y21	Z21	X22	Y22	Z22	X23	Y23	Z23	X24	Y24	Z24

200	0.796	0.13889282	-0.015038254	-0.030060508	-0.62111987	0.05927156	0.058202609	0.016962691	0.01919444	-0.065745692	-0.62308485	0.19841064	0.095921803	0.0054670304	0.032974567	0.019262482	-0.5738194	0.18404607	0.021691142	-0.06062047	-0.010009701	-0.031267938	-0.63538198	0.24443847	0.030241597	0.04355032	0.39892014	-0.080123462	-0.27694527	0.36254032	0.17054722	-0.013949865	0.39699661	0.033147338	-0.26165929	0.33467934	0.041406657	-0.10700324	0.75351329	-0.16478336	-0.22017583	0.7166209	0.16830629	-0.058140525	0.78921613	-0.095471027	-0.1130862	0.7756901	0.13707698	-0.2693338	0.85932728	-0.014742298	-0.15916448	1.2591875	-0.19492648	-0.19349847	1.2595628	0.16773706	-0.25435962	1.2909129	-0.023125824	-0.26446834	0.97049533	-0.24088557	-0.21782208	0.94494674	0.26784294	-0.20927822	0.74048103	-0.30005481	0.0095189605	0.84032376	0.26244269
201	0.8	0.13905387	-0.01518317	-0.030416494	-0.61021021	0.063037602	0.060267245	0.017130483	0.019019847	-0.066065182	-0.610891	0.20272212	0.09655658	0.0061686916	0.033175553	0.019017081	-0.56172047	0.18782916	0.022085618	-0.060497867	-0.0098837664	-0.031330247	-0.62325858	0.248644	0.030574136	0.049159231	0.39916638	-0.081017916	-0.26374569	0.3615353	0.17276354	-0.0056641018	0.39836513	0.032794386	-0.24735602	0.33345104	0.043608994	-0.10234535	0.75327642	-0.16534009	-0.21353077	0.71598937	0.16792718	-0.052230909	0.78953323	-0.096243797	-0.10656003	0.77494874	0.13651163	-0.26271637	0.85889786	-0.014246968	-0.15096289	1.2587083	-0.1953967	-0.18615568	1.2596959	0.16815789	-0.24627307	1.2918733	-0.023366531	-0.25501535	0.96931146	-0.24163441	-0.21281181	0.94463311	0.26686272	-0.19894929	0.73946092	-0.29995326	0.013327298	0.83827413	0.26321348
202	0.804	0.1391055	-0.01528774	-0.030721956	-0.59844219	0.066920985	0.062405908	0.017266572	0.018827067	-0.066281917	-0.59838099	0.2071121	0.097173046	0.0068040221	0.033246629	0.018855603	-0.54932199	0.19168337	0.022516702	-0.060470849	-0.0098267301	-0.031370303	-0.61097851	0.25252484	0.030858611	0.053846774	0.39891851	-0.082009303	-0.25033518	0.36060095	0.17493857	0.0021279928	0.39902104	0.031996176	-0.23338352	0.3329409	0.045554874	-0.097658976	0.75281975	-0.16583193	-0.20672321	0.71577187	0.16744212	-0.046372122	0.78990126	-0.097139719	-0.099982495	0.77438901	0.13588671	-0.25629869	0.85857792	-0.013620521	-0.14284353	1.2584199	-0.19575551	-0.17863154	1.2599526	0.16857588	-0.23825533	1.2929293	-0.02346845	-0.24556201	0.9682876	-0.24209329	-0.20784349	0.94450183	0.26583631	-0.18844689	0.73861087	-0.29981248	0.016969874	0.83621266	0.26401375
203	0.808	0.1390891	-0.01535885	-0.030930031	-0.58576349	0.070837164	0.064607791	0.017396204	0.018585364	-0.066384524	-0.58553039	0.21146472	0.097811593	0.0072508097	0.033237806	0.018760516	-0.53658365	0.19549469	0.023097305	-0.060514857	-0.0098207524	-0.031379268	-0.59822703	0.25607116	0.031162333	0.057849323	0.398344	-0.083056517	-0.23674733	0.35978782	0.17706248	0.0096440369	0.39912777	0.031031736	-0.21971987	0.33305873	0.047273616	-0.092882041	0.75225879	-0.16626022	-0.19983797	0.7158835	0.16687228	-0.040543022	0.79035314	-0.098110926	-0.09334161	0.77406865	0.13519944	-0.25004195	0.85850547	-0.012774115	-0.13483783	1.2583229	-0.19596779	-0.1709753	1.2603453	0.16894786	-0.23033917	1.2940501	-0.023438349	-0.23605949	0.96742511	-0.24237324	-0.20286801	0.94457341	0.26477893	-0.17777004	0.73794976	-0.29963228	0.020519426	0.8341554	0.2648457
204	0.812	0.13903907	-0.015408922	-0.031076946	-0.57226871	0.074648021	0.066866503	0.017509409	0.018316351	-0.066439499	-0.57232109	0.21563512	0.098503983	0.0075151587	0.033178284	0.01870082	-0.52346121	0.19916547	0.023829652	-0.060592446	-0.00982794	-0.031354159	-0.58493084	0.25939575	0.031567031	0.06138785	0.39757541	-0.084137598	-0.22301337	0.35916843	0.1791363	0.016961012	0.39880935	0.03007973	-0.20624246	0.33365256	0.048870422	-0.088015671	0.75170949	-0.1666375	-0.19327177	0.71634792	0.16630087	-0.034704685	0.7909198	-0.099083567	-0.086686905	0.77401588	0.13449217	-0.24395034	0.85877186	-0.011795144	-0.1270015	1.2584139	-0.19599711	-0.16324007	1.2608806	0.16925091	-0.2225491	1.2952016	-0.023295466	-0.22648892	0.96672854	-0.24255876	-0.1978869	0.94485304	0.26371502	-0.16690421	0.73749205	-0.29939871	0.023960253	0.83212057	0.26569913
205	0.816	0.13897209	-0.015452261	-0.03120689	-0.55815144	0.078242558	0.069169294	0.017569848	0.018062069	-0.066536466	-0.55874937	0.21949861	0.099270975	0.0076946512	0.033095402	0.018641097	-0.50993786	0.20263099	0.024674133	-0.060674025	-0.0098095474	-0.031303483	-0.57116414	0.2626101	0.032146936	0.064604029	0.39665022	-0.085234901	-0.20915537	0.35880307	0.18116375	0.023908252	0.39809015	0.029175326	-0.19283948	0.3345422	0.050396156	-0.0830898	0.75129078	-0.16699785	-0.18729508	0.71720785	0.16587051	-0.028841305	0.79161583	-0.10002118	-0.080120023	0.77423561	0.13382679	-0.23828805	0.85946279	-0.010922065	-0.11934056	1.2586911	-0.19585646	-0.15548074	1.2615598	0.16948024	-0.21490601	1.2963615	-0.023072182	-0.21687494	0.96620427	-0.24266432	-0.19295037	0.9453427	0.26266182	-0.1558112	0.73725367	-0.29908665	0.027259698	0.83011989	0.2665301
206	0.82	0.13889431	-0.015497898	-0.031325223	-0.54362062	0.081563256	0.071458564	0.017558729	0.017856052	-0.066712445	-0.5448335	0.22298891	0.10011329	0.0078620343	0.033016713	0.018560857	-0.49603896	0.2058707	0.025593594	-0.060744956	-0.0097451793	-0.031236954	-0.55704967	0.26573585	0.032923285	0.067558743	0.39556311	-0.086332966	-0.19520583	0.35873251	0.18314487	0.030279022	0.39697657	0.028339241	-0.17947062	0.33558366	0.051881121	-0.078070093	0.75114197	-0.16740722	-0.18166144	0.7183423	0.16550345	-0.02298461	0.79243424	-0.10094843	-0.07370708	0.77473957	0.13323566	-0.2332502	0.86057778	-0.010540472	-0.11181014	1.2591522	-0.19560279	-0.14775146	1.2623769	0.16964358	-0.20742907	1.2975222	-0.022806325	-0.20724932	0.96584716	-0.24267768	-0.18808346	0.9460479	0.26161883	-0.14445553	0.73724855	-0.29867567	0.030409173	0.82815979	0.26729868
207	0.824	0.13880872	-0.015553167	-0.031411004	-0.52884129	0.084594999	0.073631032	0.017497581	0.017704066	-0.066934969	-0.53061343	0.22610487	0.10102196	0.0080283546	0.032958429	0.018465308	-0.48181896	0.20889053	0.026565995	-0.060802635	-0.0096459416	-0.03116865	-0.54272937	0.26872383	0.033866643	0.070243944	0.39431799	-0.087411865	-0.18120374	0.35897214	0.18506819	0.03594055	0.39553178	0.027644314	-0.16613557	0.33670499	0.053363637	-0.072819797	0.75139851	-0.16794662	-0.17582269	0.71952981	0.16492409	-0.017167564	0.79335718	-0.10189721	-0.067437512	0.77554797	0.13271814	-0.22852372	0.86194684	-0.011000256	-0.10437824	1.2597913	-0.19528863	-0.14010669	1.2633186	0.16975637	-0.20012992	1.298684	-0.022532057	-0.1976385	0.96563971	-0.24258533	-0.18326391	0.94697375	0.26057456	-0.13286444	0.73747678	-0.29817296	0.033410557	0.82624636	0.26800119
208	0.828	0.13871787	-0.015625156	-0.031447095	-0.51389372	0.087348903	0.075609279	0.017423202	0.017583141	-0.067153594	-0.51612925	0.22888991	0.1019975	0.0081782738	0.032920242	0.018375719	-0.46734297	0.21169857	0.027583225	-0.060849583	-0.0095432591	-0.031121361	-0.52833751	0.27151512	0.03493034	0.072613418	0.39293435	-0.0884234	-0.16715854	0.35950068	0.18690445	0.040828299	0.39388927	0.027188711	-0.15278839	0.33788569	0.054845915	-0.067219271	0.75212236	-0.16863838	-0.16947146	0.72062301	0.16398922	-0.011393584	0.7943698	-0.10286807	-0.061273015	0.77666446	0.13227167	-0.223541	0.86335994	-0.012244026	-0.097041369	1.2605992	-0.19494095	-0.13259981	1.2643698	0.16983661	-0.19300703	1.2998496	-0.022275172	-0.18806168	0.96556031	-0.24238145	-0.17849505	0.94811769	0.25952046	-0.12113124	0.73792188	-0.29761074	0.0362628	0.82439069	0.26865828
209	0.832	0.1386278	-0.015708868	-0.03143997	-0.49877156	0.089846802	0.077396505	0.017351883	0.017468455	-0.067354412	-0.50139603	0.23140403	0.1030569	0.0082990686	0.032892227	0.018308829	-0.45267357	0.21430028	0.028645603	-0.060887796	-0.0094571071	-0.031112259	-0.51396753	0.27407834	0.036080111	0.074653106	0.39144333	-0.089283356	-0.15305016	0.36028221	0.18862067	0.044909543	0.39221076	0.027036059	-0.13930181	0.33913961	0.056317607	-0.061285622	0.75326211	-0.16939685	-0.16270867	0.72161026	0.16283463	-0.0056463959	0.79546359	-0.10383894	-0.05519611	0.77806633	0.13190058	-0.21799467	0.86472093	-0.013817742	-0.089806171	1.2615651	-0.1945705	-0.1252688	1.2655202	0.16990229	-0.18604868	1.3010257	-0.022052374	-0.1785303	0.96559512	-0.24206837	-0.17383252	0.94946615	0.25845609	-0.10932942	0.73856465	-0.29700762	0.038966444	0.82261052	0.26929015
210	0.836	0.13855048	-0.015780324	-0.031420391	-0.48342626	0.092110874	0.07904907	0.017276666	0.017354707	-0.067559925	-0.48641762	0.23369599	0.10422082	0.0083796071	0.032867119	0.018265596	-0.43786069	0.21669954	0.029757985	-0.060919948	-0.00938178	-0.03114453	-0.49965465	0.27639657	0.037298898	0.076458586	0.38990284	-0.089893299	-0.13887625	0.36130631	0.1902044	0.04813226	0.39062405	0.027165429	-0.12554633	0.34052108	0.057793367	-0.055123566	0.75468452	-0.17008121	-0.15582923	0.72260609	0.16171833	0.00011568809	0.79663573	-0.1047766	-0.049205453	0.77971337	0.13160808	-0.21197254	0.8660434	-0.015261349	-0.082679805	1.2626789	-0.1941848	-0.11812789	1.2667653	0.16997114	-0.17924008	1.3022272	-0.021869082	-0.16905001	0.96574336	-0.24165641	-0.16930234	0.95099991	0.25738359	-0.097459865	0.73939393	-0.29635218	0.041527814	0.82092223	0.26990944
211	0.84	0.13849879	-0.015809297	-0.031424781	-0.46781351	0.094160187	0.080621127	0.01720075	0.017253611	-0.067776085	-0.47124033	0.23577835	0.10548462	0.0084017239	0.032847635	0.018238434	-0.42293698	0.21889836	0.030922056	-0.060952609	-0.0093021227	-0.031212827	-0.48537349	0.27843313	0.038564262	0.078218316	0.38841308	-0.09018049	-0.12467424	0.36258746	0.19166452	0.050439511	0.38921159	0.027480675	-0.11150899	0.34208977	0.059269001	-0.04881555	0.75623975	-0.17058132	-0.14905687	0.72376485	0.16080282	0.0059427198	0.79788482	-0.1056441	-0.043290089	0.78155936	0.13139682	-0.20574478	0.86737993	-0.016297797	-0.075653421	1.2639345	-0.19379212	-0.11117765	1.2681026	0.17005897	-0.17256212	1.3034737	-0.021719147	-0.15962392	0.96601241	-0.241161	-0.16484598	0.95270259	0.25630408	-0.085496403	0.74040467	-0.29562951	0.043953147	0.81933334	0.27052668
212	0.844	0.13847573	-0.015781822	-0.031469425	-0.45190504	0.096007524	0.082142851	0.017151027	0.017183378	-0.067962411	-0.45596543	0.23762949	0.10681296	0.0083432208	0.032840855	0.018225291	-0.40791835	0.22090076	0.032131686	-0.060993721	-0.0092125474	-0.031301984	-0.47104372	0.28013461	0.039838109	0.080098401	0.38709963	-0.090136894	-0.11049487	0.36413524	0.1930109	0.051855258	0.38805679	0.027872691	-0.097327057	0.34384175	0.060672804	-0.04238814	0.75780319	-0.17085852	-0.14244247	0.72514922	0.16010949	0.011840304	0.79920192	-0.10641062	-0.037430067	0.78356198	0.1312684	-0.1994681	0.86876725	-0.016823669	-0.068681264	1.2653291	-0.19339975	-0.10441564	1.2695307	0.17017679	-0.16598623	1.3047793	-0.021592475	-0.15025364	0.96640857	-0.24060034	-0.16037354	0.95456034	0.25521902	-0.073442583	0.74159452	-0.2948414	0.046242448	0.81784672	0.27114981
213	0.848	0.13846567	-0.015717429	-0.03153078	-0.43567728	0.097656284	0.083632352	0.017142896	0.017158176	-0.068073174	-0.44068173	0.23922567	0.10817735	0.0081958458	0.032849113	0.018229919	-0.39280402	0.22271564	0.033378352	-0.061046864	-0.0091187002	-0.031385362	-0.45657187	0.28148505	0.041100892	0.082152751	0.38606477	-0.089822272	-0.096372062	0.36594361	0.19424408	0.052505201	0.38725868	0.028255076	-0.083201018	0.3457076	0.061896414	-0.03584716	0.75928462	-0.17094451	-0.13593952	0.72671006	0.15960909	0.017769359	0.80057356	-0.10705799	-0.031615472	0.78568786	0.13121745	-0.19311102	0.87020932	-0.016980389	-0.061701379	1.2668597	-0.19301255	-0.097834275	1.2710479	0.1703276	-0.15947836	1.3061479	-0.021482143	-0.14094096	0.96692941	-0.23999953	-0.15584212	0.95655703	0.2541294	-0.061329801	0.74296268	-0.29399728	0.048392412	0.81646691	0.27178054
